PathFileType	4	(X/Y/Z)	RBDS019\RBDS019runT45.trc
DataRate	CameraRate	NumFrames	NumMarkers	Units	OrigDataRate	OrigDataStartFrame	OrigNumFrames
150.000000	150.000000	4	33	mm	150.000000	1687	4500
Frame#	Time	L.ASIS			L.Heel.Bottom			L.Heel.Lateral			L.Heel.Top			L.Iliac.Crest			L.MT1			L.MT5			L.PSIS			L.Shank.Bottom.Lateral			L.Shank.Bottom.Medial			L.Shank.Top.Lateral			L.Shank.Top.Medial			L.Thigh.Bottom.Lateral			L.Thigh.Bottom.Medial			L.Thigh.Top.Lateral			L.Thigh.Top.Medial			R.ASIS			R.ASY			R.Heel.Bottom			R.Heel.Lateral			R.Heel.Top			R.Iliac.Crest			R.MT1			R.MT5			R.PSIS			R.Shank.Bottom.Lateral			R.Shank.Bottom.Medial			R.Shank.Top.Lateral			R.Shank.Top.Medial			R.Thigh.Bottom.Lateral			R.Thigh.Bottom.Medial			R.Thigh.Top.Lateral			R.Thigh.Top.Medial			
		X1	Y1	Z1	X2	Y2	Z2	X3	Y3	Z3	X4	Y4	Z4	X5	Y5	Z5	X6	Y6	Z6	X7	Y7	Z7	X8	Y8	Z8	X9	Y9	Z9	X10	Y10	Z10	X11	Y11	Z11	X12	Y12	Z12	X13	Y13	Z13	X14	Y14	Z14	X15	Y15	Z15	X16	Y16	Z16	X17	Y17	Z17	X18	Y18	Z18	X19	Y19	Z19	X20	Y20	Z20	X21	Y21	Z21	X22	Y22	Z22	X23	Y23	Z23	X24	Y24	Z24	X25	Y25	Z25	X26	Y26	Z26	X27	Y27	Z27	X28	Y28	Z28	X29	Y29	Z29	X30	Y30	Z30	X31	Y31	Z31	X32	Y32	Z32	X33	Y33	Z33	

1688	11.24666666666667	2379.633009006135	925.6289304714259	921.9400496721022	1765.828274040915	198.1912662081012	1000.423107901185	1795.520715258531	184.1186580153542	955.3066358992677	1806.212413235829	222.0559449606001	994.6992919651371	2354.462995441098	989.3226557548804	891.0360291382767	1907.063787042212	57.39744839984919	1033.822587637218	1873.403532607495	68.05557270140665	931.5646698496681	2216.96186394731	978.9372640571227	974.2295925466873	1898.212071346037	256.610764013399	934.7679605079514	1871.1001221536	277.999738119717	972.9937877826353	1935.5104837634	326.8741651862923	918.2103872536778	1912.216335778272	351.1966078052742	959.4985824146369	2150.997446104427	605.6141861607622	887.2152973933064	2101.48123873078	635.2530058101006	932.4093957331947	2191.824097888259	704.7126433862773	867.886992776655	2145.422867832055	733.0532887104536	912.6863294517522	2368.620374297058	961.3750136995058	1140.61964435528	nan	nan	nan	2239.529109797076	312.3523026658694	1071.496604969192	2269.64664504956	313.3038939430955	1112.489141045304	2273.640015595205	342.2345252958602	1067.453064380131	2309.878175919428	1021.941254378027	1168.782668420369	2411.404167207141	206.0695599224182	1050.300637559896	2379.539201942073	222.9188350152888	1151.046615797073	2211.172404883286	986.1011448745752	1072.821814325511	2376.920065007449	373.9635130450617	1128.68626031402	2346.398345093662	402.3130401085491	1091.607251516116	2418.468129783855	442.847522744298	1143.810282999491	2389.646675196991	468.6284154803654	1106.093220331065	2531.720677738265	667.7537467334146	1175.502679119703	2491.731610334013	626.3505658686947	1133.044420738516	2443.034716238293	729.1800490388679	1200.356267630675	2404.109104860867	685.9461577961914	1164.347057752261	
1689	11.25333333333333	2381.586135025829	927.542762526887	922.6656637719896	1752.452872470957	219.5801981523985	1000.076315606396	1780.634359869963	202.7492097200926	954.9324522313042	1794.80186757763	239.929805739151	993.8883534007032	2360.008541716931	992.3633755899828	893.3221399064452	1882.312972461364	66.7120256763485	1033.456366458242	1848.850506781017	79.23079945718298	931.8252125426794	2219.556377208713	983.7119763058864	974.6045381446905	1884.778618967404	269.1159631580709	934.0029197072648	1858.400594880469	290.5694876065331	972.7198866667214	1923.561068274769	338.7177070757745	918.1465200299079	1900.812695039592	363.0430676818278	959.7056010689205	2145.27177935885	613.2109876137806	887.924212199559	2097.013272276382	644.2974064144299	933.6651199261106	2189.226410588558	711.0905025780852	868.7595011986447	2143.994543240743	740.7937075747225	914.0363442787997	2369.640163069649	964.8504045659629	1139.182214470893	nan	nan	nan	2265.163277139024	286.7845843984693	1070.978278041619	2295.09087481512	290.3178805376089	1111.986931290964	2296.638796245104	319.4523376483356	1066.83795821744	2311.123736159102	1026.814562205841	1168.181662107718	2445.245106126796	195.3059933432206	1049.040958597073	2412.381462812098	209.3176366136983	1149.876672688893	2213.201014421305	991.0008885988512	1073.019682390611	2397.001249724156	360.0093620606486	1127.946660523236	2364.439680275685	385.7455707773863	1090.615263714377	2432.884113503541	431.9736803109666	1142.857426765406	2402.305095993884	455.302827363458	1104.883671936742	2532.493987705789	672.1413995221571	1173.448903808727	2491.685011248867	630.0166659326163	1132.998374819736	2444.080301852586	733.7682718800442	1199.046116603785	2404.639322347521	689.9385129582597	1164.603101993477	
1690	11.26	2383.263247764893	929.6688852976229	923.5274213245285	1739.926841482142	241.9414037390676	1000.153384336814	1766.384347528374	222.5506030947504	955.0011638397048	1783.934129216213	258.7604242076159	993.5217302843222	2364.417872585454	995.627714675391	895.5008141474665	1858.136677329348	78.2837824186974	1033.587620739366	1824.77016639738	92.57003644547656	932.6080081064791	2221.775005384442	988.3510902171442	975.2430842209419	1872.167219706235	282.2647404337906	933.6234154691688	1846.624700504864	304.0849151208118	972.6605600414542	1912.901215163173	350.7739303716046	918.2441446625947	1890.831713148272	375.3924574996619	959.9286850010944	2141.263204989924	619.7629252164486	888.5343246363492	2093.893176115444	651.9059740309355	934.5637666211127	2187.647917874682	716.6604541418824	869.5889024712948	2143.210478691402	747.3727163706827	915.09499823053	2370.306141501315	967.7988714450693	1138.15763905784	nan	nan	nan	2291.844596213526	261.7821381347636	1070.332985096625	2321.456392827691	267.8013341090875	1111.323011663573	2320.440447704141	297.0139200042172	1066.175587606598	2311.832376011626	1031.021124278916	1167.90592941139	2478.728978094643	185.8695314609577	1047.062776998255	2445.345499675533	196.6728867239002	1148.103449931094	2215.001771698726	995.5921634213164	1073.504156121412	2417.173486486794	345.9181308390504	1127.086353916974	2382.781517568693	369.0322385832903	1089.642970447421	2447.221358955032	420.407627107947	1141.962189636682	2415.070918790507	441.3024493792209	1103.862970545545	2532.588839970257	675.1754305130148	1171.66105340223	2490.668430194675	632.2904115682034	1133.586399885573	2444.773519784866	737.501598717423	1197.850433421493	2404.546721312776	693.1153945622131	1165.288736078626	
1691	11.26666666666667	2384.666753918702	931.9996620110056	924.5005507194977	1728.166413264247	265.1701980125638	1000.648843718374	1752.731938228408	243.4313204323205	955.5154892647297	1773.505272831827	278.51385052043	993.5942220266621	2367.613232104664	999.0959305937512	897.4625363648213	1834.690446153479	92.13374353597962	1034.297226921239	1801.313692027213	108.0481378966903	933.9392449005469	2223.589907264632	992.7810758765808	976.0803717385588	1860.312927730661	296.1051383043643	933.6566348248285	1835.732378696567	318.6060213538815	972.8433053328614	1903.44245086617	363.0607074251542	918.5081325276246	1882.227009654913	388.2673731831803	960.1866510019681	2138.966355299568	625.087529738226	889.0503778527973	2092.066664072652	657.9212762759088	935.0762859426758	2187.07804910098	721.2728270897385	870.3487284824271	2143.007227295058	752.6647073092918	915.7945534226919	2370.605478794558	970.2851542182387	1137.570237331828	nan	nan	nan	2319.288670441057	237.5219252972596	1069.525343234383	2348.494685172642	245.9117349617619	1110.457794304861	2344.780330109518	275.0693944837698	1065.454245559182	2312.012717482566	1034.516542132378	1167.967960203328	2511.4897377235	177.8268001701437	1044.367982863145	2478.134477174588	185.0963609891614	1145.719013168791	2216.538298373835	999.8211778952999	1074.226715470681	2437.243635128083	331.8033976443516	1126.098823687588	2401.213567581471	352.2905223370372	1088.680842519812	2461.348400854243	408.2625989555617	1141.136681420966	2427.785479801422	426.744168626741	1103.040343198138	2531.956013021646	676.7835073938555	1170.214807175927	2488.679315676631	633.1919726972485	1134.721099042638	2445.086034922161	740.2995179122431	1196.837916881867	2403.826194038978	695.4876500467166	1166.333939907994	
